<?xml version="1.0" standalone="no"?><!DOCTYPE svg PUBLIC "-//W3C//DTD SVG 1.1//EN" "http://www.w3.org/Graphics/SVG/1.1/DTD/svg11.dtd">
<svg t="1773379729835" class="icon" viewBox="0 0 1024 1024" version="1.1" xmlns="http://www.w3.org/2000/svg" p-id="10721" xmlns:xlink="http://www.w3.org/1999/xlink" width="200" height="200">
  <path d="M859.73 798.36H164.27C107.79 798.36 62 752.57 62 696.09V164.27C62 107.79 107.79 62 164.27 62h695.45C916.21 62 962 107.79 962 164.27v531.82c0 56.48-45.79 102.27-102.27 102.27z" fill="#66CCFF" p-id="10722"></path>
  
  <path d="M690.81 379.37L553.02 257.54c-18.1-18.92-18.51 0.41-18.51 0.41v75.27c-155.06 20.4-195.37 114.26-205.82 161.89-3.7 16.78 6.5 13.41 12.09 7.16 69.92-77.82 193.48-63.67 193.48-63.67v78.64c-0.99 25.42 20.4 2.8 20.4 2.8l137.8-121.34c9.04-8.72-1.65-19.33-1.65-19.33" fill="#FFFFFF" p-id="10723"></path>
  
  <path d="M593.822 798.362v163.64h-163.64v-163.64z" fill="#AABBCC" p-id="10724"></path>
  
  <path d="M839.27 962H184.73c-22.59 0-40.91-18.32-40.91-40.91 0-22.59 18.32-40.91 40.91-40.91h654.55c22.59 0 40.91 18.32 40.91 40.91-0.01 22.59-18.32 40.91-40.92 40.91z" fill="#CCCCCC" p-id="10725"></path>
  
  <path d="M614.27 716.55H409.73c-11.3 0-20.45-9.16-20.45-20.45 0-11.3 9.16-20.45 20.45-20.45h204.55c11.3 0 20.45 9.16 20.45 20.45s-9.16 20.45-20.46 20.45z" fill="#3399CC" p-id="10726"></path>
</svg>