<?xml version="1.0" standalone="no"?><!DOCTYPE svg PUBLIC "-//W3C//DTD SVG 1.1//EN" "http://www.w3.org/Graphics/SVG/1.1/DTD/svg11.dtd"><svg t="1776231775466" class="icon" viewBox="0 0 1024 1024" version="1.1" xmlns="http://www.w3.org/2000/svg" p-id="8036" xmlns:xlink="http://www.w3.org/1999/xlink" width="256" height="256"><path d="M913.8 171.2c-2.5-29.6-23.7-55.3-53.4-55.4-137.4-0.3-390.8 2.9-524.4 3.9-31.7 0.3-62 19.2-60.9 64.1 4 166.6 13.3 378.3 13.3 378.3 136.8-1.5 298.9-0.3 298.9-0.3 50.1 7.6 47.3 39.5 50.6 67.5l3.2 111.4c0.6 21.2 4.3 46.8 11.4 71.4 12 41.7 43.8 74.8 84.8 88.7l0.6 0.4c57.4 0 111.4-27.5 145.2-73.9 22.7-31.2 33.9-75.8 37.1-114.3 10.3-121.1 6.6-384.9-6.4-541.8z" fill="#FFBA3B" p-id="8037"></path><path d="M288.5 562.2c-47.9 0.5-94.6 1.4-127.5 2.7-32.2 1.3-64.8 30.3-63 62.4l0.4 155.7c0.1 45.8 26.9 87.4 68.5 106.5 17.2 7.9 35.8 12 54.7 12.1 5.2-0.8 12.6-3.2 21.7-9.3 70-47.5 45.2-330.1 45.2-330.1z" fill="#00A9DC" p-id="8038"></path><path d="M737.4 900.9c-41.1-13.9-72.8-47.1-84.8-88.7-7.1-24.6-10.8-50.2-11.4-71.4L638 629.3c-3.3-28-0.5-59.9-50.6-67.5 0 0-162.1-1.1-298.9 0.3 0 0 24.8 282.6-45.2 330.2-9 6.1-16.4 8.5-21.7 9.3 0.3 0 0.6 0.1 1 0.1l514.8-0.8z" fill="#CAC134" p-id="8039"></path><path d="M799.6 261.8l-412 3.1c-16.3 0.1-29.7-13-29.8-29.3s13-29.7 29.3-29.8l412-3.1c16.3-0.1 29.7 13 29.8 29.3 0.1 16.3-13 29.7-29.3 29.8zM813.5 387.5l-412 3.1c-16.3 0.1-29.7-13-29.8-29.3-0.1-16.3 13-29.7 29.3-29.8l412-3.1c16.3-0.1 29.7 13 29.8 29.3 0.1 16.3-13 29.7-29.3 29.8zM809.8 513.3L577.6 515c-16.3 0.1-29.7-13-29.8-29.3-0.1-16.3 13-29.7 29.3-29.8l232.2-1.7c16.3-0.1 29.7 13 29.8 29.3 0.2 16.4-13 29.7-29.3 29.8z" fill="#FB536C" p-id="8040"></path></svg>